name D:\school\WTK\thesis\model\3dpredictsim\Results\Final\Fal_s1_bCst_ig1_v27.mot
datacolumns 126
datarows 4
range 0.86316452 0.88042781
endheader
time	pelvis_tilt	pelvis_list	pelvis_rotation	pelvis_tx	pelvis_ty	pelvis_tz	hip_flexion_l	hip_adduction_l	hip_rotation_l	hip_flexion_r	hip_adduction_r	hip_rotation_r	knee_angle_l	knee_angle_r	ankle_angle_l	ankle_angle_r	subtalar_angle_l	subtalar_angle_r	mtp_angle_l	mtp_angle_r	lumbar_extension	lumbar_bending	lumbar_rotation	arm_flex_l	arm_add_l	arm_rot_l	arm_flex_r	arm_add_r	arm_rot_r	elbow_flex_l	elbow_flex_r	pro_sup_l	pro_sup_r	glut_med1_l/activation	glut_med2_l/activation	glut_med3_l/activation	glut_min1_l/activation	glut_min2_l/activation	glut_min3_l/activation	semimem_l/activation	semiten_l/activation	bifemlh_l/activation	bifemsh_l/activation	sar_l/activation	add_long_l/activation	add_brev_l/activation	add_mag1_l/activation	add_mag2_l/activation	add_mag3_l/activation	tfl_l/activation	pect_l/activation	grac_l/activation	glut_max1_l/activation	glut_max2_l/activation	glut_max3_l/activation	iliacus_l/activation	psoas_l/activation	quad_fem_l/activation	gem_l/activation	peri_l/activation	rect_fem_l/activation	vas_med_l/activation	vas_int_l/activation	vas_lat_l/activation	med_gas_l/activation	lat_gas_l/activation	soleus_l/activation	tib_post_l/activation	flex_dig_l/activation	flex_hal_l/activation	tib_ant_l/activation	per_brev_l/activation	per_long_l/activation	per_tert_l/activation	ext_dig_l/activation	ext_hal_l/activation	ercspn_l/activation	intobl_l/activation	extobl_l/activation	glut_med1_r/activation	glut_med2_r/activation	glut_med3_r/activation	glut_min1_r/activation	glut_min2_r/activation	glut_min3_r/activation	semimem_r/activation	semiten_r/activation	bifemlh_r/activation	bifemsh_r/activation	sar_r/activation	add_long_r/activation	add_brev_r/activation	add_mag1_r/activation	add_mag2_r/activation	add_mag3_r/activation	tfl_r/activation	pect_r/activation	grac_r/activation	glut_max1_r/activation	glut_max2_r/activation	glut_max3_r/activation	iliacus_r/activation	psoas_r/activation	quad_fem_r/activation	gem_r/activation	peri_r/activation	rect_fem_r/activation	vas_med_r/activation	vas_int_r/activation	vas_lat_r/activation	med_gas_r/activation	lat_gas_r/activation	soleus_r/activation	tib_post_r/activation	flex_dig_r/activation	flex_hal_r/activation	tib_ant_r/activation	per_brev_r/activation	per_long_r/activation	per_tert_r/activation	ext_dig_r/activation	ext_hal_r/activation	ercspn_r/activation	intobl_r/activation	extobl_r/activation	
          0.86316452	        -13.41714585	          0.88762195	          2.00328790	          2.33054421	          0.89509023	         -0.00049887	         47.29462067	          3.90094102	         -1.58931385	          5.26878856	          1.43602864	          2.93492036	        -29.32575134	        -37.61602941	         18.36378453	         -4.81054613	         -1.24473511	          7.25842321	          3.26043105	         29.89856590	          1.70460792	         -2.67698191	          2.56539985	         -6.50920779	        -13.46204328	          3.80253854	          1.91484556	        -13.89580700	         19.36981032	         61.90396005	         34.19058671	         86.51662706	         86.51662706	          0.06581003	          0.27361025	          0.28756792	          0.06581003	          0.06580997	          0.09459450	          0.64964400	          0.06580899	          0.55930107	          0.05000096	          0.11393880	          0.07840456	          0.17505251	          0.42940119	          0.51109294	          0.46364196	          0.06400834	          0.05017181	          0.05473047	          0.45329518	          0.44560332	          0.62018035	          0.06793799	          0.07146087	          0.08920582	          0.10451531	          0.69897216	          0.05000032	          0.08795006	          0.08942315	          0.08707268	          0.06005058	          0.06005049	          0.06005061	          0.15035807	          0.05479542	          0.05479557	          0.35798235	          0.28031708	          0.19541494	          0.49142654	          0.81147361	          0.46947613	          0.22447529	          0.05000001	          0.05132903	          0.11741074	          0.06572169	          0.07310914	          0.10619227	          0.10215646	          0.11616316	          0.07220658	          0.05000037	          0.05000026	          0.07720342	          0.44728975	          0.86785374	          0.25543505	          0.06118376	          0.07586445	          0.05000009	          0.94516178	          0.44932924	          0.20767060	          0.05467124	          0.05000026	          0.05000012	          0.79786798	          0.96408260	          0.67311321	          0.71851832	          0.16091247	          0.56810183	          0.08549752	          0.09196864	          0.07955520	          0.15044135	          0.22078090	          0.07668835	          0.18423719	          0.23231991	          0.27333046	          0.27053460	          0.07689621	          0.10042212	          0.19878330	          0.88515317	          0.75774866	          0.13638020	          0.21710039	          0.05000001	
          0.86891895	        -13.39489422	          0.82744058	          1.93588274	          2.34686077	          0.89373277	         -0.00045599	         47.01012327	          4.00772687	         -1.30884723	          5.59434854	          1.49036865	          2.80992053	        -29.23052188	        -39.24720882	         17.81720301	         -4.61021172	         -1.52064566	          7.79345091	          3.15480545	         28.65334432	          1.79748951	         -2.72929865	          2.55198768	         -6.55895452	        -13.45233182	          3.77149783	          1.80732098	        -13.90105911	         19.37907758	         61.62290878	         34.20182210	         86.51662706	         86.51662706	          0.06005075	          0.24966558	          0.26240204	          0.06005078	          0.06005074	          0.08631623	          0.59279110	          0.06005058	          0.51035444	          0.05000010	          0.10396757	          0.07154414	          0.15973320	          0.52418474	          0.54106721	          0.46599412	          0.05840675	          0.05000090	          0.05000077	          0.47251677	          0.45177617	          0.60571347	          0.06199250	          0.06520707	          0.10694636	          0.09536882	          0.78243559	          0.05000004	          0.11430632	          0.11383850	          0.11481910	          0.05479532	          0.05479524	          0.05479535	          0.13719965	          0.05000011	          0.05000022	          0.53598990	          0.34868554	          0.18536750	          0.63243499	          0.86374494	          0.61657021	          0.21157057	          0.05000006	          0.05000019	          0.10713566	          0.05997014	          0.06671108	          0.09689897	          0.09321636	          0.10599728	          0.08790708	          0.06982020	          0.05205288	          0.08561632	          0.40814571	          0.80202535	          0.27707045	          0.05582941	          0.06922532	          0.05000010	          0.96036632	          0.59920516	          0.24321258	          0.05000016	          0.05000006	          0.05000004	          0.72804340	          0.89618425	          0.61420652	          0.65563893	          0.14683041	          0.61798250	          0.07801530	          0.08392010	          0.07259301	          0.13727563	          0.20145949	          0.06997705	          0.16811388	          0.21198871	          0.24941025	          0.30422162	          0.07016673	          0.09163378	          0.38854091	          0.91699591	          0.82491583	          0.13416831	          0.23868643	          0.05000002	
          0.87467338	        -13.36992351	          0.77367319	          1.85496037	          2.36316644	          0.89213822	         -0.00041925	         46.69505635	          4.12344836	         -1.01818462	          6.05676616	          1.54849347	          2.66882558	        -29.59406312	        -40.97006506	         17.14930033	         -4.19007686	         -1.80838058	          8.25000182	          3.06002179	         27.46625188	          1.89308117	         -2.77806598	          2.52688763	         -6.58015567	        -13.44970773	          3.77607019	          1.71672412	        -13.90305385	         19.38526000	         61.24501180	         34.18577401	         86.51662706	         86.51662706	          0.05479547	          0.22781637	          0.23943846	          0.05479552	          0.05479548	          0.07876237	          0.54091361	          0.05479537	          0.46569130	          0.05479535	          0.09486897	          0.07900140	          0.15458482	          0.57961599	          0.49371672	          0.43100674	          0.05329536	          0.05806793	          0.09400607	          0.50435685	          0.49307065	          0.61251869	          0.05656733	          0.05950058	          0.35455685	          0.24745727	          0.84275799	          0.05000006	          0.16256318	          0.15934746	          0.15867900	          0.05000000	          0.05000000	          0.05000000	          0.18367943	          0.05000132	          0.05000007	          0.51865421	          0.31817071	          0.16914528	          0.73434698	          0.89288432	          0.56261176	          0.19854703	          0.05000002	          0.05000011	          0.09775980	          0.05472195	          0.06087296	          0.08841897	          0.08505864	          0.09672105	          0.08030090	          0.06371099	          0.05000158	          0.07812374	          0.37242730	          0.73183711	          0.35958628	          0.05094373	          0.06316725	          0.05000003	          0.97135523	          0.59323107	          0.25613491	          0.05000017	          0.05000005	          0.05000002	          0.66432945	          0.81775565	          0.62772240	          0.59826151	          0.13398071	          0.67047480	          0.07118787	          0.07657592	          0.06624011	          0.12526210	          0.18382898	          0.06385308	          0.15340157	          0.19343678	          0.22758338	          0.31338798	          0.06402618	          0.08361455	          0.41576782	          0.94000984	          0.87346002	          0.15497207	          0.29335749	          0.05000001	
          0.88042781	        -13.34277870	          0.72982596	          1.75782640	          2.37945704	          0.89034265	         -0.00038567	         46.33841726	          4.22979222	         -0.70285087	          6.64111327	          1.60363826	          2.51001352	        -30.42408824	        -42.74497292	         16.31747242	         -3.58465925	         -2.10610311	          8.63133000	          2.98272496	         26.33869533	          1.99014136	         -2.82436289	          2.49048787	         -6.57235775	        -13.45467900	          3.81890326	          1.64508497	        -13.90059569	         19.38769859	         60.76730658	         34.14297296	         86.51662706	         86.51662706	          0.05000011	          0.20787928	          0.21848431	          0.05000015	          0.05000012	          0.07186960	          0.49357612	          0.05000003	          0.42493682	          0.05000001	          0.08656663	          0.07212178	          0.17985854	          0.62194650	          0.53799801	          0.44571211	          0.06003895	          0.07205113	          0.08577933	          0.47797910	          0.45720698	          0.56951748	          0.06580990	          0.06580991	          0.53351397	          0.22580133	          0.88635525	          0.06005076	          0.24138016	          0.22824922	          0.23274164	          0.08333983	          0.08661931	          0.07690791	          0.16760501	          0.05000008	          0.05479448	          0.47326473	          0.42267047	          0.18252412	          0.67008140	          0.81474450	          0.51337539	          0.18117140	          0.05000000	          0.05479534	          0.08920446	          0.05000045	          0.07903929	          0.08068108	          0.07761483	          0.08825662	          0.07710270	          0.08533004	          0.14942787	          0.07128684	          0.33983474	          0.66779125	          0.53714901	          0.16749985	          0.11400581	          0.05000088	          0.97929734	          0.54131602	          0.30793130	          0.07127166	          0.07212092	          0.07228921	          0.60619135	          0.74619063	          0.57278803	          0.54590532	          0.12225554	          0.71005401	          0.06495794	          0.06987446	          0.06044318	          0.11429992	          0.16774138	          0.05826505	          0.13997680	          0.17650840	          0.20766667	          0.30259123	          0.05842301	          0.07629712	          0.42885258	          0.95664286	          0.90854465	          0.17230348	          0.29439764	          0.05000000	
